<svg width="29" height="32" viewBox="0 0 29 32" fill="none" xmlns="http://www.w3.org/2000/svg">
<mask id="mask0_0_1" style="mask-type:alpha" maskUnits="userSpaceOnUse" x="-1" y="2" width="33" height="33">
<rect x="-0.455811" y="2.50375" width="32" height="32.0611" fill="black"/>
</mask>
<g mask="url(#mask0_0_1)">
<path d="M15.5442 31.8931C13.722 31.8931 11.9997 31.5422 10.3775 30.8404C8.75531 30.1395 7.33886 29.1821 6.12819 27.9683C4.91664 26.7553 3.96108 25.3361 3.26153 23.7108C2.56108 22.0855 2.21086 20.36 2.21086 18.5343C2.21086 16.6863 2.56108 14.9555 3.26153 13.3417C3.96108 11.7271 4.91664 10.3133 6.12819 9.10032C7.33886 7.88645 8.75531 6.92863 10.3775 6.22685C11.9997 5.52596 13.722 5.17551 15.5442 5.17551C17.3886 5.17551 19.1162 5.52596 20.7269 6.22685C22.3384 6.92863 23.7495 7.88645 24.9602 9.10032C26.1717 10.3133 27.1273 11.7271 27.8269 13.3417C28.5273 14.9555 28.8775 16.6863 28.8775 18.5343C28.8775 20.36 28.5273 22.0855 27.8269 23.7108C27.1273 25.3361 26.1717 26.7553 24.9602 27.9683C23.7495 29.1821 22.3384 30.1395 20.7269 30.8404C19.1162 31.5422 17.3886 31.8931 15.5442 31.8931ZM15.5442 29.1545C16.122 28.353 16.622 27.5181 17.0442 26.6498C17.4664 25.7814 17.8109 24.8575 18.0775 23.8778H13.0109C13.2775 24.8575 13.622 25.7814 14.0442 26.6498C14.4664 27.5181 14.9664 28.353 15.5442 29.1545ZM12.0775 28.6202C11.6775 27.8854 11.3277 27.1227 11.0282 26.3318C10.7277 25.5419 10.4775 24.7239 10.2775 23.8778H6.34419C6.98864 24.991 7.79397 25.9596 8.76019 26.7833C9.72731 27.6071 10.8331 28.2194 12.0775 28.6202ZM19.0109 28.6202C20.2553 28.2194 21.3606 27.6071 22.3269 26.7833C23.294 25.9596 24.0997 24.991 24.7442 23.8778H20.8109C20.6109 24.7239 20.3611 25.5419 20.0615 26.3318C19.7611 27.1227 19.4109 27.8854 19.0109 28.6202ZM5.21086 21.2061H9.74419C9.67753 20.7608 9.62731 20.3208 9.59353 19.8862C9.56064 19.4525 9.54419 19.0019 9.54419 18.5343C9.54419 18.0667 9.56064 17.6161 9.59353 17.1824C9.62731 16.7478 9.67753 16.3078 9.74419 15.8625H5.21086C5.09975 16.3078 5.01619 16.7478 4.96019 17.1824C4.90508 17.6161 4.87753 18.0667 4.87753 18.5343C4.87753 19.0019 4.90508 19.4525 4.96019 19.8862C5.01619 20.3208 5.09975 20.7608 5.21086 21.2061ZM12.4109 21.2061H18.6775C18.7442 20.7608 18.7944 20.3208 18.8282 19.8862C18.8611 19.4525 18.8775 19.0019 18.8775 18.5343C18.8775 18.0667 18.8611 17.6161 18.8282 17.1824C18.7944 16.7478 18.7442 16.3078 18.6775 15.8625H12.4109C12.3442 16.3078 12.2944 16.7478 12.2615 17.1824C12.2277 17.6161 12.2109 18.0667 12.2109 18.5343C12.2109 19.0019 12.2277 19.4525 12.2615 19.8862C12.2944 20.3208 12.3442 20.7608 12.4109 21.2061ZM21.3442 21.2061H25.8775C25.9886 20.7608 26.0722 20.3208 26.1282 19.8862C26.1833 19.4525 26.2109 19.0019 26.2109 18.5343C26.2109 18.0667 26.1833 17.6161 26.1282 17.1824C26.0722 16.7478 25.9886 16.3078 25.8775 15.8625H21.3442C21.4109 16.3078 21.4606 16.7478 21.4935 17.1824C21.5273 17.6161 21.5442 18.0667 21.5442 18.5343C21.5442 19.0019 21.5273 19.4525 21.4935 19.8862C21.4606 20.3208 21.4109 20.7608 21.3442 21.2061ZM20.8109 13.1908H24.7442C24.0997 12.0775 23.294 11.109 22.3269 10.2852C21.3606 9.46145 20.2553 8.84918 19.0109 8.44841C19.4109 9.18315 19.7611 9.94549 20.0615 10.7354C20.3611 11.5263 20.6109 12.3447 20.8109 13.1908ZM13.0109 13.1908H18.0775C17.8109 12.2111 17.4664 11.2872 17.0442 10.4188C16.622 9.55051 16.122 8.71559 15.5442 7.91406C14.9664 8.71559 14.4664 9.55051 14.0442 10.4188C13.622 11.2872 13.2775 12.2111 13.0109 13.1908ZM6.34419 13.1908H10.2775C10.4775 12.3447 10.7277 11.5263 11.0282 10.7354C11.3277 9.94549 11.6775 9.18315 12.0775 8.44841C10.8331 8.84918 9.72731 9.46145 8.76019 10.2852C7.79397 11.109 6.98864 12.0775 6.34419 13.1908Z" fill="black"/>
</g>
<path d="M1.68138 6.96662L22.3251 1.43515" stroke="black" stroke-width="2.6692" stroke-linecap="round"/>
<path d="M1.68138 7.84674L1.68138 13.1897" stroke="black" stroke-width="1.06859" stroke-linecap="round"/>
<line x1="6.81694" y1="7.70114" x2="17.1388" y2="4.93541" stroke="black" stroke-width="1.60289"/>
</svg>
