<?xml version="1.0" standalone="no"?>
<!DOCTYPE svg PUBLIC "-//W3C//DTD SVG 20010904//EN"
 "http://www.w3.org/TR/2001/REC-SVG-20010904/DTD/svg10.dtd">
<svg version="1.0" xmlns="http://www.w3.org/2000/svg"
 width="510.000000pt" height="510.000000pt" viewBox="0 0 510.000000 510.000000"
 preserveAspectRatio="xMidYMid meet">
<metadata>
Created by potrace 1.14, written by Peter Selinger 2001-2017
</metadata>
<g transform="translate(0.000000,510.000000) scale(0.100000,-0.100000)"
fill="#000000" stroke="none">
<path d="M2065 4639 c-919 -246 -1671 -448 -1673 -449 -1 0 -23 -19 -47 -41
-59 -55 -83 -126 -65 -199 13 -54 46 -105 87 -131 l28 -19 5 -420 c5 -417 5
-420 27 -442 31 -30 84 -30 118 2 l25 23 0 417 0 417 355 94 355 95 10 -35 c5
-20 17 -66 26 -102 l17 -66 -120 -119 c-190 -188 -318 -368 -434 -609 -398
-822 -210 -1819 462 -2460 330 -315 762 -518 1219 -575 108 -13 380 -13 490 0
496 60 943 285 1296 652 157 163 270 327 381 553 366 749 252 1646 -291 2292
-321 383 -785 652 -1261 733 l-100 17 -22 81 -21 82 36 9 c21 6 233 62 472
126 476 127 494 134 538 215 20 38 23 56 20 112 -3 55 -9 75 -33 109 -41 58
-103 89 -174 88 -40 -1 -524 -127 -1726 -450z m711 -898 c120 -183 245 -447
303 -636 12 -38 24 -78 27 -87 5 -17 -19 -18 -401 -18 -350 0 -406 2 -402 14
3 8 11 34 17 58 22 81 103 283 156 389 71 142 215 379 231 379 2 0 33 -45 69
-99z m-636 4 c0 -3 -19 -42 -41 -88 -67 -132 -147 -341 -194 -502 l-43 -150
-311 -3 c-171 -1 -311 0 -311 4 0 13 109 172 161 234 175 211 375 362 614 466
95 41 125 51 125 39z m1227 -26 c222 -87 451 -253 610 -440 71 -84 193 -255
193 -271 0 -4 -140 -8 -310 -8 -240 0 -311 3 -314 13 -3 6 -20 69 -39 138 -47
167 -95 296 -173 458 -35 74 -64 135 -64 137 0 9 24 2 97 -27z m-1604 -1251
c-17 -133 -17 -513 0 -645 l13 -103 -362 0 -362 0 -16 68 c-49 218 -47 504 5
735 l11 47 362 0 362 0 -13 -102z m1451 50 c33 -266 33 -480 0 -745 l-6 -53
-503 0 -502 0 -7 48 c-28 220 -30 464 -4 700 l11 102 502 0 503 0 6 -52z
m1150 35 c56 -191 56 -625 0 -815 -5 -17 -31 -18 -368 -18 l-363 0 8 53 c30
183 30 557 0 745 l-8 52 363 0 c337 0 363 -1 368 -17z m-2469 -1388 c46 -168
106 -327 185 -492 l68 -141 -57 19 c-225 77 -474 249 -645 445 -69 79 -189
244 -202 278 -6 15 24 16 306 14 l312 -3 33 -120z m1209 98 c-32 -133 -140
-392 -226 -546 -54 -96 -165 -267 -174 -267 -10 0 -139 208 -195 314 -73 141
-120 250 -170 398 -21 65 -39 120 -39 123 0 3 182 5 405 5 l405 0 -6 -27z
m1040 -30 c-165 -262 -403 -482 -659 -610 -89 -45 -203 -89 -210 -81 -3 3 24
65 59 139 78 162 126 291 173 458 19 69 36 132 39 139 3 9 75 12 319 12 l316
0 -37 -57z"/>
</g>
</svg>
